<svg xmlns="http://www.w3.org/2000/svg" version="1.1" xmlns:xlink="http://www.w3.org/1999/xlink" xmlns:svgjs="http://svgjs.dev/svgjs" viewBox="0 0 800 800"><defs><linearGradient x1="50%" y1="0%" x2="50%" y2="100%" id="ffflurry-grad" gradientTransform="rotate(270)"><stop stop-color="hsl(0, 0%, 100%)" stop-opacity="1" offset="0%"></stop><stop stop-color="#a8dbcc" stop-opacity="1" offset="45%"></stop><stop stop-color="#e7a08c" stop-opacity="1" offset="100%"></stop></linearGradient></defs><rect width="100%" height="100%" fill="hsl(0, 0%, 100%)"></rect><g fill="url(#ffflurry-grad)"><rect width="360" height="2" x="245" y="462" rx="1" transform="rotate(112, 425, 463)" opacity="0.69"></rect><rect width="342" height="2" x="383" y="464" rx="1" transform="rotate(112, 554, 465)" opacity="0.99"></rect><rect width="352" height="2" x="-81" y="247" rx="1" transform="rotate(112, 95, 248)" opacity="0.78"></rect><rect width="588" height="2" x="10" y="739" rx="1" transform="rotate(112, 304, 740)" opacity="0.69"></rect><rect width="368" height="2" x="93" y="255" rx="1" transform="rotate(112, 277, 256)" opacity="0.53"></rect><rect width="524" height="2" x="-42" y="637" rx="1" transform="rotate(112, 220, 638)" opacity="0.07"></rect><rect width="209" height="2" x="621.5" y="440" rx="1" transform="rotate(112, 726, 441)" opacity="0.47"></rect><rect width="477" height="2" x="478.5" y="278" rx="1" transform="rotate(112, 717, 279)" opacity="0.09"></rect><rect width="503" height="2" x="309.5" y="203" rx="1" transform="rotate(112, 561, 204)" opacity="0.26"></rect><rect width="100" height="2" x="144" y="32" rx="1" transform="rotate(112, 194, 33)" opacity="0.16"></rect><rect width="313" height="2" x="-61.5" y="325" rx="1" transform="rotate(112, 95, 326)" opacity="0.76"></rect><rect width="193" height="2" x="281.5" y="47" rx="1" transform="rotate(112, 378, 48)" opacity="0.70"></rect><rect width="272" height="2" x="621" y="57" rx="1" transform="rotate(112, 757, 58)" opacity="0.37"></rect><rect width="452" height="2" x="-179" y="542" rx="1" transform="rotate(112, 47, 543)" opacity="0.64"></rect><rect width="308" height="2" x="115" y="39" rx="1" transform="rotate(112, 269, 40)" opacity="0.73"></rect><rect width="220" height="2" x="99" y="180" rx="1" transform="rotate(112, 209, 181)" opacity="0.16"></rect><rect width="266" height="2" x="-40" y="167" rx="1" transform="rotate(112, 93, 168)" opacity="0.67"></rect><rect width="324" height="2" x="0" y="518" rx="1" transform="rotate(112, 162, 519)" opacity="0.69"></rect><rect width="383" height="2" x="260.5" y="154" rx="1" transform="rotate(112, 452, 155)" opacity="0.30"></rect><rect width="179" height="2" x="639.5" y="767" rx="1" transform="rotate(112, 729, 768)" opacity="0.27"></rect><rect width="360" height="2" x="-50" y="80" rx="1" transform="rotate(112, 130, 81)" opacity="0.28"></rect><rect width="315" height="2" x="-64.5" y="749" rx="1" transform="rotate(112, 93, 750)" opacity="0.58"></rect><rect width="213" height="2" x="638.5" y="552" rx="1" transform="rotate(112, 745, 553)" opacity="0.35"></rect><rect width="32" height="2" x="14" y="35" rx="1" transform="rotate(112, 30, 36)" opacity="0.17"></rect><rect width="48" height="2" x="564" y="90" rx="1" transform="rotate(112, 588, 91)" opacity="0.13"></rect><rect width="161" height="2" x="16.5" y="25" rx="1" transform="rotate(112, 97, 26)" opacity="0.60"></rect><rect width="367" height="2" x="184.5" y="201" rx="1" transform="rotate(112, 368, 202)" opacity="0.73"></rect><rect width="77" height="2" x="453.5" y="46" rx="1" transform="rotate(112, 492, 47)" opacity="0.66"></rect><rect width="160" height="2" x="465" y="664" rx="1" transform="rotate(112, 545, 665)" opacity="0.91"></rect><rect width="169" height="2" x="208.5" y="477" rx="1" transform="rotate(112, 293, 478)" opacity="0.77"></rect><rect width="592" height="2" x="135" y="689" rx="1" transform="rotate(112, 431, 690)" opacity="0.69"></rect><rect width="436" height="2" x="498" y="155" rx="1" transform="rotate(112, 716, 156)" opacity="0.10"></rect><rect width="489" height="2" x="105.5" y="582" rx="1" transform="rotate(112, 350, 583)" opacity="0.16"></rect><rect width="277" height="2" x="47.5" y="407" rx="1" transform="rotate(112, 186, 408)" opacity="0.25"></rect><rect width="352" height="2" x="325" y="572" rx="1" transform="rotate(112, 501, 573)" opacity="0.11"></rect><rect width="505" height="2" x="-196.5" y="418" rx="1" transform="rotate(112, 56, 419)" opacity="0.26"></rect><rect width="288" height="2" x="169" y="112" rx="1" transform="rotate(112, 313, 113)" opacity="0.46"></rect><rect width="79" height="2" x="613.5" y="37" rx="1" transform="rotate(112, 653, 38)" opacity="0.56"></rect><rect width="125" height="2" x="-28.5" y="123" rx="1" transform="rotate(112, 34, 124)" opacity="0.93"></rect><rect width="410" height="2" x="404" y="359" rx="1" transform="rotate(112, 609, 360)" opacity="0.90"></rect><rect width="205" height="2" x="620.5" y="694" rx="1" transform="rotate(112, 723, 695)" opacity="0.68"></rect><rect width="105" height="2" x="580.5" y="714" rx="1" transform="rotate(112, 633, 715)" opacity="0.99"></rect><rect width="193" height="2" x="124.5" y="108" rx="1" transform="rotate(112, 221, 109)" opacity="0.59"></rect><rect width="167" height="2" x="677.5" y="644" rx="1" transform="rotate(112, 761, 645)" opacity="0.43"></rect><rect width="279" height="2" x="494.5" y="578" rx="1" transform="rotate(112, 634, 579)" opacity="0.08"></rect><rect width="204" height="2" x="425" y="763" rx="1" transform="rotate(112, 527, 764)" opacity="0.91"></rect><rect width="377" height="2" x="-100.5" y="645" rx="1" transform="rotate(112, 88, 646)" opacity="0.90"></rect><rect width="80" height="2" x="411" y="321" rx="1" transform="rotate(112, 451, 322)" opacity="0.98"></rect><rect width="446" height="2" x="63" y="352" rx="1" transform="rotate(112, 286, 353)" opacity="0.44"></rect></g></svg>